. 
  
http://www.torrenting.com/        :     Greatest Movie Tracker on The Net!!!
 
http://www.Torrenting.com          :     Once & For all ;)


               www . Torrenting . Com 

(((((((((((((= Enjoy No RAR releases =))))))))))))))))))))


...................................NFO:....................................

.[img]http://img143.imageshack.us/img143/4115/sinnersandsaints2010sma.jpg[/img]

[color=blue][size=4][b]Sinners.and.Saints.2010.BDRip.XVID.AC3.HQ.Hive-CM8[/b][/size][/color]


[b]Thx Hive

CM8 Doing It Right The First Time :D


Source Bluray

Video: 720x304 @bitrate 1800 2pass
Audio: English DTS to AC3 5.1 @448
Sample: yes included[/b]


[url]http://www.imdb.com/title/tt1130969/[/url]


General
Complete name                    : Sinners.and.Saints.2010.BDRip.XVID.AC3.HQ.Hive-CM8.avi
Format                           : AVI
Format/Info                      : Audio Video Interleave
File size                        : 1.64 GiB
Duration                         : 1h 44mn
Overall bit rate                 : 2 256 Kbps
Writing application              : Nandub v1.0rc2
Writing library                  : Nandub build 1853/release

Video
ID                               : 0
Format                           : MPEG-4 Visual
Format profile                   : Advanced Simple@L5
Format settings, BVOP            : 1
Format settings, QPel            : Yes
Format settings, GMC             : No warppoints
Format settings, Matrix          : Default (H.263)
Muxing mode                      : Packed bitstream
Codec ID                         : XVID
Codec ID/Hint                    : XviD
Duration                         : 1h 44mn
Bit rate                         : 1 799 Kbps
Width                            : 720 pixels
Height                           : 304 pixels
Display aspect ratio             : 2.35:1
Frame rate                       : 23.976 fps
Color space                      : YUV
Chroma subsampling               : 4:2:0
Bit depth                        : 8 bits
Scan type                        : Progressive
Compression mode                 : Lossy
Bits/(Pixel*Frame)               : 0.343
Stream size                      : 1.31 GiB (80%)
Writing library                  : XviD 1.2.1 (UTC 2008-12-04)

Audio
ID                               : 1
Format                           : AC-3
Format/Info                      : Audio Coding 3
Mode extension                   : CM (complete main)
Codec ID                         : 2000
Duration                         : 1h 44mn
Bit rate mode                    : Constant
Bit rate                         : 448 Kbps
Channel(s)                       : 6 channels
Channel positions                : Front: L C R, Side: L R, LFE
Sampling rate                    : 48.0 KHz
Bit depth                        : 16 bits
Compression mode                 : Lossy
Stream size                      : 333 MiB (20%)
Alignment                        : Split accross interleaves
Interleave, duration             : 42 ms (1.00 video frame)
Interleave, preload duration     : 500 ms


Sean Patrick Flanery	 ... 	Colin
Tom Berenger	... 	Captain Trahan
Kim Coates	... 	Detective Dave Besson
Jolene Blalock	... 	Stacy
Costas Mandylor	... 	Raymond Crowe


In lawless storm ravaged New Orleans, beleaguered Detective Sean Riley is trying 
to cope with the death of his young son and the abandonment of his wife. Facing a 
probable suspension from the department, Riley is teamed with a young homicide Detective, 
Will Ganz, to help solve a series of brutal murders that have plunged the city into a major gang war. 
The two quickly realize there is something far more sinister going on than either could have ever imagined.


[img]http://img9.imageshack.us/img9/707/92787034.png[/img]
[img]http://img135.imageshack.us/img135/1186/sisi.png[/img]
[img]http://img191.imageshack.us/img191/8304/sissii.png[/img]
[img]http://img194.imageshack.us/img194/4636/sissisii.png[/img]
[img]http://img269.imageshack.us/img269/3853/sissisisii.png[/img]
[img]http://img137.imageshack.us/img137/6351/sissisisisii.png[/img]
[img]http://img832.imageshack.us/img832/6967/sissisisisisii.png[/img]
[img]http://img850.imageshack.us/img850/4873/sississiisisisisii.png[/img]
[img]http://img641.imageshack.us/img641/4724/sississisiisisisisii.png[/img]
[img]http://img710.imageshack.us/img710/8403/sisssiisisisisii.png[/img]





Greetz

ViSiON,SANTi,MAGNET,THC,T0XiC,iNK,LKRG,IMAGiNE,WBZ,FLAWL3SS,NOVA
Vik,OneTwo,Rapeseed,D2U,SAFC,goldadvance,MEMORY100,KaN1vE,Unevano,Pinnz,Wayne,Mr Hive
and all P2P groups 
Great Work Guys :D

FYS

CM8@hushmail.com